<svg width="40" height="40" viewBox="0 0 40 40" fill="none" xmlns="http://www.w3.org/2000/svg">
<circle cx="20" cy="20" r="20" fill="#F0F0F6"/>
<g clip-path="url(#clip0_2_598)">
<path d="M17.75 20.75V23H22.25V20.75H27.5V26C27.5 26.1989 27.421 26.3897 27.2803 26.5303C27.1397 26.671 26.9489 26.75 26.75 26.75H13.25C13.0511 26.75 12.8603 26.671 12.7197 26.5303C12.579 26.3897 12.5 26.1989 12.5 26V20.75H17.75ZM19.25 19.25H20.75V21.5H19.25V19.25ZM16.25 14.75V12.5C16.25 12.3011 16.329 12.1103 16.4697 11.9697C16.6103 11.829 16.8011 11.75 17 11.75H23C23.1989 11.75 23.3897 11.829 23.5303 11.9697C23.671 12.1103 23.75 12.3011 23.75 12.5V14.75H26.75C26.9489 14.75 27.1397 14.829 27.2803 14.9697C27.421 15.1103 27.5 15.3011 27.5 15.5V19.25H22.25V17.75H17.75V19.25H12.5V15.5C12.5 15.3011 12.579 15.1103 12.7197 14.9697C12.8603 14.829 13.0511 14.75 13.25 14.75H16.25ZM17.75 13.25V14.75H22.25V13.25H17.75Z" fill="#767676"/>
</g>
<defs>
<clipPath id="clip0_2_598">
<rect width="18" height="18" fill="white" transform="translate(11 11)"/>
</clipPath>
</defs>
</svg>
