<svg width="40" height="40" viewBox="0 0 40 40" fill="none" xmlns="http://www.w3.org/2000/svg">
<circle cx="20" cy="20" r="20" fill="#F0F0F6"/>
<g clip-path="url(#clip0_2_590)">
<path d="M29.6988 20.9985L29.5743 21.1713L25.1117 17.9564L27.742 14.3052L27.9533 14.4574C28.1752 14.6173 28.3361 14.8428 28.4005 15.0842L29.8025 20.3379C29.8669 20.5793 29.8296 20.8169 29.6988 20.9985ZM24.1752 18.6683C23.715 18.3368 23.5604 17.7575 23.8316 17.3809L26.6264 13.5015L19.6536 8.47828C19.1915 8.14536 18.5961 8.18199 18.3237 8.56009L8.78866 21.7957C8.51627 22.1738 8.67008 22.7501 9.1322 23.0831L20.8465 31.5221C21.3086 31.855 21.904 31.8184 22.1764 31.4403L28.9167 22.0841L24.1752 18.6683ZM14.8821 22.3943C14.8545 22.3969 14.8257 22.3942 14.7972 22.3863C14.7686 22.3784 14.741 22.3655 14.7158 22.3484C14.6906 22.3312 14.6684 22.3101 14.6504 22.2863C14.6324 22.2625 14.619 22.2365 14.6109 22.2097L13.5991 18.8458C13.5907 18.8179 13.5883 18.7897 13.592 18.763C13.5956 18.7363 13.6054 18.7116 13.6206 18.6906C13.6357 18.6695 13.656 18.6525 13.6802 18.6405C13.7043 18.6286 13.7319 18.6219 13.761 18.6211L17.2722 18.5156C17.3002 18.5147 17.3291 18.5192 17.3574 18.5287C17.3857 18.5383 17.4127 18.5527 17.437 18.5711C17.4612 18.5896 17.4822 18.6117 17.4987 18.6363C17.5152 18.6609 17.5269 18.6874 17.5332 18.7143L17.7866 19.8018C17.793 19.8293 17.7936 19.8567 17.7884 19.8823C17.7832 19.9079 17.7722 19.9313 17.7561 19.9511C17.7401 19.9708 17.7192 19.9865 17.6949 19.9972C17.6706 20.0079 17.6432 20.0135 17.6145 20.0135L15.4561 20.0129L16.1401 22.0601C16.1492 22.0873 16.1526 22.115 16.1502 22.1415C16.1477 22.168 16.1394 22.1927 16.1258 22.2142C16.1121 22.2357 16.0934 22.2535 16.0708 22.2666C16.0481 22.2797 16.0219 22.2878 15.9938 22.2904L14.8821 22.3943ZM15.6331 25.1226L14.8398 24.2057C14.8 24.1598 14.7787 24.1041 14.7804 24.051C14.7821 23.9979 14.8068 23.9516 14.849 23.9224L21.3398 19.4289C21.382 19.3997 21.4383 19.39 21.4962 19.4018C21.5541 19.4136 21.609 19.4461 21.6488 19.492L22.4421 20.4088C22.4618 20.4316 22.4771 20.4569 22.4873 20.4835C22.4975 20.51 22.5023 20.5372 22.5015 20.5636C22.5006 20.5899 22.4941 20.6148 22.4823 20.6368C22.4706 20.6589 22.4538 20.6777 22.4329 20.6921L15.942 25.1856C15.9211 25.2001 15.8966 25.21 15.8697 25.2146C15.8429 25.2193 15.8143 25.2187 15.7856 25.2128C15.757 25.207 15.7287 25.196 15.7025 25.1805C15.6764 25.165 15.6528 25.1453 15.6331 25.1226ZM23.5209 25.9935L20.0097 26.099C19.9817 26.0998 19.9527 26.0954 19.9245 26.0858C19.8962 26.0763 19.8692 26.0619 19.8449 26.0435C19.8207 26.025 19.7997 26.0029 19.7832 25.9783C19.7667 25.9537 19.7549 25.9272 19.7487 25.9003L19.4952 24.8128C19.4888 24.7853 19.4882 24.7579 19.4934 24.7323C19.4987 24.7066 19.5097 24.6832 19.5257 24.6635C19.5418 24.6438 19.5626 24.6281 19.5869 24.6173C19.6113 24.6066 19.6386 24.6011 19.6674 24.6011L21.8257 24.6017L21.1418 22.5546C21.1327 22.5273 21.1292 22.4996 21.1317 22.4731C21.1342 22.4466 21.1425 22.4219 21.1561 22.4004C21.1697 22.379 21.1884 22.3611 21.2111 22.3481C21.2338 22.335 21.2599 22.3269 21.288 22.3242L22.3998 22.2203C22.4274 22.2177 22.4562 22.2204 22.4848 22.2283C22.5133 22.2362 22.5409 22.2491 22.5661 22.2662C22.5913 22.2834 22.6135 22.3045 22.6315 22.3283C22.6495 22.3521 22.6629 22.3781 22.671 22.405L23.6828 25.7688C23.6912 25.7968 23.6936 25.8249 23.6899 25.8516C23.6863 25.8783 23.6765 25.903 23.6613 25.924C23.6462 25.9451 23.6259 25.9621 23.6017 25.9741C23.5775 25.986 23.55 25.9927 23.5209 25.9935Z" fill="#767676"/>
</g>
<defs>
<clipPath id="clip0_2_590">
<rect width="16.5" height="18" fill="white" transform="translate(12 11)"/>
</clipPath>
</defs>
</svg>
