<svg width="65" height="33" viewBox="0 0 65 33" fill="none" xmlns="http://www.w3.org/2000/svg">
<path fill-rule="evenodd" clip-rule="evenodd" d="M2 0C0.895431 0 0 0.89543 0 2V22C0 23.1046 0.89543 24 2 24H26.8039L32 33L37.1962 24H63C64.1046 24 65 23.1046 65 22V2C65 0.895431 64.1046 0 63 0H2Z" fill="#2B2B2B"/>
<path d="M15.9588 18H17.2756V14.1946H21.6264V18H22.9474V9.27273H21.6264V13.0653H17.2756V9.27273H15.9588V18ZM27.5199 18.1321C29.3651 18.1321 30.571 16.7812 30.571 14.7571C30.571 12.7202 29.3651 11.3693 27.5199 11.3693C25.6747 11.3693 24.4688 12.7202 24.4688 14.7571C24.4688 16.7812 25.6747 18.1321 27.5199 18.1321ZM27.5241 17.0625C26.3182 17.0625 25.7557 16.0099 25.7557 14.7528C25.7557 13.5 26.3182 12.4347 27.5241 12.4347C28.7216 12.4347 29.2841 13.5 29.2841 14.7528C29.2841 16.0099 28.7216 17.0625 27.5241 17.0625ZM31.9933 18H33.2674V13.9645C33.2674 13.0824 33.8853 12.4688 34.6097 12.4688C35.3171 12.4688 35.8072 12.9375 35.8072 13.6491V18H37.0771V13.8281C37.0771 13.0398 37.5586 12.4688 38.3896 12.4688C39.0629 12.4688 39.6168 12.8438 39.6168 13.7301V18H40.891V13.6108C40.891 12.1151 40.0558 11.3693 38.8711 11.3693C37.9293 11.3693 37.2219 11.821 36.9066 12.5199H36.8384C36.5529 11.804 35.9521 11.3693 35.0785 11.3693C34.2134 11.3693 33.57 11.7997 33.2972 12.5199H33.2163V11.4545H31.9933V18ZM45.4197 18.1321C46.8473 18.1321 47.8572 17.429 48.147 16.3636L46.9411 16.1463C46.7109 16.7642 46.157 17.0795 45.4325 17.0795C44.3416 17.0795 43.6087 16.3722 43.5746 15.1108H48.228V14.6591C48.228 12.294 46.8132 11.3693 45.3303 11.3693C43.5064 11.3693 42.3047 12.7585 42.3047 14.7699C42.3047 16.8026 43.4893 18.1321 45.4197 18.1321ZM43.5788 14.1562C43.63 13.2273 44.3033 12.4219 45.3388 12.4219C46.3274 12.4219 46.9751 13.1548 46.9794 14.1562H43.5788Z" fill="white"/>
</svg>
